# xmcd
#
# Track frame offsets:
#	150
#	20270
#	37777
#	53017
#	71967
#	85345
#	98842
#	112052
#	129527
#	150215
#	164725
#	182480
#	198467
#	213307
#	226307
#	241407
#	255197
#	272827
#	289480
#	308757
#
# Disc length: 4323 seconds
#
# Revision: 0
# Processed by: cddbd v1.5.2PL0 Copyright (c) Steve Scherf et al.
# Submitted via: audiograbber 1.81.02
#
DISCID=1310e114
DTITLE=John ac Alun - Yr Wylan Wen Chwarelwr
DYEAR=1994
DGENRE=Country
TTITLE0=Yr Wylan Wen
TTITLE1=Deigryn Hiraeth
TTITLE2=Sipsi Fechan (Gypsy Woman)
TTITLE3=Weithiau Bydd Y Fflam
TTITLE4=Bod Yn Unig (Love me tonight)
TTITLE5=Cariad llyn
TTITLE6=Dychwel Yn Ol
TTITLE7=Hoffwn Gael Dy Weld (I would like to see you again)
TTITLE8=Chwarelwr (Working man)
TTITLE9=Tyrd Yn Ol
TTITLE10=Un Siawns
TTITLE11=Fan Acw Fy Nghariad
TTITLE12=Seren Y Sgrin
TTITLE13=Bod Yn Rhydd (Achy breaky heart)
TTITLE14=Hwylio'r Cefnfor (Sailing)
TTITLE15=Sefyll Dan Y Lleuad (Standing in the moonlight)
TTITLE16=Y Ferch O Benrhyn Llyn (The Lovely Rose of Clare)
TTITLE17=Blaenau Ffestiniog
TTITLE18=Sisial Ei Henw
TTITLE19=Paid A Wylo
EXTD=Welsh
EXTT0=
EXTT1=
EXTT2=
EXTT3=
EXTT4=
EXTT5=
EXTT6=
EXTT7=
EXTT8=
EXTT9=
EXTT10=
EXTT11=
EXTT12=
EXTT13=
EXTT14=
EXTT15=
EXTT16=
EXTT17=
EXTT18=
EXTT19=
PLAYORDER=
